<svg width="32" height="32" viewBox="0 0 32 32" fill="none" xmlns="http://www.w3.org/2000/svg">
  <circle cx="16" cy="16" r="16" fill="#1976d2"/>
  <path d="M24 12.5c-.6.3-1.2.5-1.9.6.7-.4 1.2-1 1.5-1.7-.7.4-1.4.7-2.2.9-.7-.7-1.7-1.1-2.7-1.1-2.1 0-3.7 1.7-3.7 3.7 0 .3 0 .6.1.9-3-.2-5.7-1.6-7.5-3.8-.3.6-.5 1.2-.5 1.9 0 1.3.7 2.4 1.7 3-.6 0-1.2-.2-1.7-.5v.1c0 1.8 1.3 3.3 3.1 3.6-.3.1-.7.2-1 .2-.2 0-.5 0-.7-.1.5 1.5 1.9 2.6 3.6 2.6-1.3 1-2.9 1.6-4.6 1.6-.3 0-.6 0-.9-.1 1.6 1 3.5 1.6 5.5 1.6 6.6 0 10.2-5.5 10.2-10.2v-.5c.7-.5 1.2-1.1 1.6-1.8z" fill="#fff"/>
</svg>
